<?xml version="1.0" encoding="UTF-8"?>
<svg width="234px" height="133px" viewBox="0 0 234 133" version="1.1" xmlns="http://www.w3.org/2000/svg" xmlns:xlink="http://www.w3.org/1999/xlink" xmlns:sketch="http://www.bohemiancoding.com/sketch/ns">
    <g id="Page-1" stroke="none" stroke-width="1" fill="none" fill-rule="evenodd" sketch:type="MSPage">
        <path d="M231.901053,103.003746 C231.901053,103.003746 231.896053,102.900746 231.887053,102.696746 C231.892053,102.491746 231.851053,102.189746 231.790053,101.789746 C231.644053,100.996746 231.223053,99.8147464 230.217053,98.4627464 C229.215053,97.1107464 227.626053,95.6327464 225.509053,94.1907464 C223.386053,92.7527464 220.760053,91.3217464 217.687053,89.9787464 C211.547053,87.2707464 203.682053,84.8317464 194.507053,82.7257464 C185.325053,80.6227464 174.816053,78.8577464 163.277053,77.5497464 C151.741053,76.1967464 139.166053,75.4047464 125.857053,75.1127464 C112.546053,74.8117464 98.4950532,75.1777464 84.0110532,76.2177464 C76.7700532,76.7627464 69.4260532,77.5307464 62.0240532,78.5337464 C54.6230532,79.5377464 47.1630532,80.8057464 39.7410532,82.5037464 C32.3280532,84.2007464 24.9070532,86.2427464 17.8100532,89.1367464 C14.2780532,90.5957464 10.8100532,92.2807464 7.72505317,94.4607464 C6.19205317,95.5507464 4.75705317,96.7867464 3.64305317,98.2217464 C2.52605317,99.6437464 1.76605317,101.310746 1.80105317,103.003746 C1.81105317,104.696746 2.60805317,106.323746 3.74605317,107.704746 C4.88205317,109.096746 6.33105317,110.285746 7.87505317,111.329746 C10.9830532,113.418746 14.4630532,115.012746 18.0050532,116.382746 C25.1220532,119.094746 32.5490532,120.958746 39.9630532,122.478746 C54.8240532,125.447746 69.7100532,127.092746 84.1370532,128.016746 C98.5660532,128.999746 112.568053,129.124746 125.821053,128.933746 C139.078053,128.701746 151.595053,127.916746 163.107053,126.843746 C174.614053,125.723746 185.111053,124.195746 194.298053,122.325746 C203.479053,120.446746 211.356053,118.187746 217.513053,115.620746 C223.672053,113.095746 228.091053,110.139746 230.125053,107.474746 C231.151053,106.159746 231.597053,104.995746 231.760053,104.213746 C231.792053,104.032746 231.820053,103.872746 231.845053,103.735746 C231.870053,103.594746 231.869053,103.420746 231.880053,103.309746 C231.895053,103.072746 231.902053,102.951746 231.902053,102.951746 L231.901053,103.003746 Z M233.900053,103.055746 C233.900053,103.055746 233.895053,103.176746 233.885053,103.414746 C233.875053,103.541746 233.883053,103.665746 233.856053,103.875746 C233.826053,104.088746 233.790053,104.336746 233.749053,104.618746 C233.555053,105.671746 232.990053,107.182746 231.805053,108.758746 C229.445053,111.946746 224.774053,115.113746 218.473053,117.863746 C212.161053,120.638746 204.196053,123.102746 194.937053,125.253746 C185.673053,127.397746 175.096053,129.188746 163.492053,130.499746 C151.894053,131.871746 139.259053,132.638746 125.894053,132.909746 C112.525053,133.192746 98.4230532,132.780746 83.8740532,131.702746 C76.6020532,131.138746 69.2240532,130.354746 61.7820532,129.330746 C54.3420532,128.304746 46.8380532,127.017746 39.3540532,125.302746 C31.8750532,123.583746 24.3820532,121.520746 17.1350532,118.561746 C13.5240532,117.064746 9.96105317,115.341746 6.69005317,113.031746 C5.06505317,111.872746 3.50705317,110.547746 2.22805317,108.907746 C0.958053168,107.295746 -0.0369468323,105.227746 0.00105316771,103.003746 C0.00905316771,100.779746 1.04005317,98.7517464 2.33205317,97.1817464 C3.63205317,95.5847464 5.20405317,94.3057464 6.84105317,93.1917464 C10.1340532,90.9737464 13.7100532,89.3417464 17.3310532,87.9347464 C24.5970532,85.1567464 32.0960532,83.2717464 39.5750532,81.7297464 C54.5590532,78.7287464 69.5080532,77.0327464 84.0010532,76.0777464 C98.4950532,75.0577464 112.546053,74.8857464 125.858053,75.0587464 C139.172053,75.2697464 151.748053,76.0297464 163.322053,77.1217464 C186.450053,79.3787464 205.622053,83.2927464 218.298053,88.5517464 C224.618053,91.1557464 229.313053,94.2047464 231.713053,97.3197464 C232.917053,98.8577464 233.508053,100.350746 233.719053,101.392746 C233.816053,101.917746 233.873053,102.319746 233.877053,102.592746 C233.893053,102.865746 233.901053,103.003746 233.901053,103.003746 L233.900053,103.055746 Z" id="Fill-3" fill="#FFDB32" sketch:type="MSShapeGroup"></path>
    </g>
</svg>
